<?xml version="1.0" standalone="no"?>
<svg version="1.0" xmlns="http://www.w3.org/2000/svg"
 width="512.000000pt" height="512.000000pt" viewBox="0 0 512.000000 512.000000"
 preserveAspectRatio="xMidYMid meet">

<g transform="translate(0.000000,512.000000) scale(0.100000,-0.100000)"
fill="#000000" stroke="none">
<path d="M1690 3640 l0 -110 -100 0 -100 0 0 -970 0 -970 100 0 100 0 0 -110
0 -110 60 0 60 0 0 110 0 110 100 0 100 0 0 970 0 970 -100 0 -100 0 0 110 0
110 -60 0 -60 0 0 -110z m230 -1080 l0 -870 -170 0 -170 0 0 870 0 870 170 0
170 0 0 -870z"/>
<path d="M3310 3640 l0 -110 -100 0 -100 0 0 -970 0 -970 100 0 100 0 0 -110
0 -110 60 0 60 0 0 110 0 110 100 0 100 0 0 970 0 970 -100 0 -100 0 0 110 0
110 -60 0 -60 0 0 -110z m230 -1080 l0 -870 -170 0 -170 0 0 870 0 870 170 0
170 0 0 -870z"/>
<path d="M2500 3305 l0 -105 -100 0 -100 0 0 -640 0 -640 100 0 100 0 0 -105
0 -105 60 0 60 0 0 105 0 105 100 0 100 0 0 640 0 640 -100 0 -100 0 0 105 0
105 -60 0 -60 0 0 -105z"/>
</g>
</svg>
